<?xml version="1.0" encoding="utf-8"?>
<!-- Generator: Adobe Illustrator 15.1.0, SVG Export Plug-In . SVG Version: 6.00 Build 0)  -->
<!DOCTYPE svg PUBLIC "-//W3C//DTD SVG 1.1//EN" "http://www.w3.org/Graphics/SVG/1.1/DTD/svg11.dtd">
<svg version="1.1" id="Layer_1" xmlns="http://www.w3.org/2000/svg" xmlns:xlink="http://www.w3.org/1999/xlink" x="0px" y="0px"
	 width="128px" height="128px" viewBox="0 0 128 128" enable-background="new 0 0 128 128" xml:space="preserve">
<path d="M132.167,133.5H-3.5V-3.833h135.667V133.5z M93.376,65.766h14.126l1.872-17.661H93.376l0.024-8.839
	c0-4.606,0.437-7.074,7.043-7.074h8.83V14.53H95.146c-16.971,0-22.943,8.567-22.943,22.974v10.603H61.625v17.661h10.578v51.244
	h21.173V65.766z"/>
<path display="none" d="M93.376,117.012H72.203V65.768H61.625V48.107h10.578V37.504c0-14.407,5.973-22.974,22.943-22.974h14.127
	v17.662h-8.83c-6.606,0-7.043,2.468-7.043,7.074l-0.024,8.839h15.998l-1.872,17.661H93.376V117.012z"/>
</svg>
