<?xml version="1.0" encoding="utf-8"?>
<!-- Generator: Adobe Illustrator 15.1.0, SVG Export Plug-In . SVG Version: 6.00 Build 0)  -->
<!DOCTYPE svg PUBLIC "-//W3C//DTD SVG 1.1//EN" "http://www.w3.org/Graphics/SVG/1.1/DTD/svg11.dtd">
<svg version="1.1" id="Layer_1" xmlns="http://www.w3.org/2000/svg" xmlns:xlink="http://www.w3.org/1999/xlink" x="0px" y="0px"
	 width="130px" height="130px" viewBox="0 0 130 130" enable-background="new 0 0 130 130" xml:space="preserve">
<g>
	<path d="M-2.5-2.25V132.5h133.75V-2.25H-2.5z M119.07,72.575c-7.682-1.06-11.691-0.159-17.223,0.098
		c-0.223,0.775-0.486,1.533-0.777,2.259c5.505,0.142,9.348-0.422,17.348,1.416l-0.109,0.45c-8.086-1.851-11.97-1.262-17.447-1.394
		c-3.133,7.199-9.983,11.849-24.269,13.32c2.454,1.664,4.978,4.811,4.991,10.78l0.057,15.312c0,0,0.127,0.852,1.139,1.795
		c-2.529,6.139-6.256,1.738-6.256,1.738c-0.526-0.816-0.858-1.906-0.858-3.354l-0.041-11.684c0,0,0.36-4.307-1.914-6.068
		l0.07,19.013c0,0,0.04,1.173,0.401,2.539c-4.057,4.173-5.936,0.687-5.936,0.687c-0.416-0.907-0.707-2.06-0.778-3.521l-0.206-19.403
		l-1.596,0.008l-0.083,19.408c-0.056,1.498-0.347,2.676-0.805,3.612c0,0-1.684,3.476-6.462-0.396
		c0.818-1.463,0.971-2.877,0.971-2.879l-0.07-19.179c-2.274,1.621-1.858,6.239-1.858,6.239l0.028,11.686
		c0.014,1.754-0.472,2.967-1.207,3.84c0,0-3.18,3.103-5.727-1.246c0.846-1.375,0.957-2.732,0.957-2.732l-0.041-10.706
		c-14.866,3.377-17.987-6.976-17.987-6.976c-2.385-6.068-5.824-7.676-5.824-7.676c-4.771-3.259,0.361-3.196,0.361-3.196
		c5.269,0.375,8.043,5.417,8.043,5.417c4.95,8.472,13.16,5.408,15.739,4.145c0.777-3.676,2.704-5.859,4.618-7.156
		c-13.424-1.393-20.968-5.976-24.823-13.111c-5.519,0.195-11.261-0.006-19.623,1.941l-0.11-0.457
		c8.265-1.918,13.922-1.739,19.483-1.939c-0.374-0.742-0.707-1.504-1.012-2.296c-5.685-0.194-11.136-0.797-19.207,0.444
		l-0.055-0.475c7.973-1.232,13.383-0.638,19.082-0.458c-1.373-3.812-1.941-8.208-1.969-13.104
		c-0.014-6.489,2.317-11.793,6.115-15.954c-0.61-1.503-2.649-7.544,0.582-15.733c0,0,4.992-1.602,16.349,6.094
		c4.743-1.324,9.833-1.983,14.883-2.004c4.574-0.007,9.15,0.5,13.449,1.562c10.956-7.392,15.811-5.874,15.811-5.874
		c2.773,6.886,1.789,12.273,1.054,14.7c4.298,4.265,6.975,9.895,6.989,16.94c0.025,4.911-0.291,9.313-1.332,13.146
		c5.548-0.248,9.527-1.144,17.141-0.084L119.07,72.575z"/>
	<path d="M49.386,97.654c-0.555,0-1.012,0.326-1.012,0.715c0,0.396,0.456,0.707,1.026,0.707c0.554-0.008,1.012-0.32,1.012-0.721
		C50.412,97.973,49.954,97.648,49.386,97.654z"/>
	<path d="M46.058,98.217c-0.569,0-1.026,0.319-1.026,0.715c0,0.387,0.457,0.705,1.026,0.705c0.567,0,1.025-0.324,1.012-0.705
		C47.07,98.527,46.611,98.217,46.058,98.217z"/>
	<path d="M42.756,98.23c-0.568,0-1.026,0.314-1.026,0.716c0.015,0.382,0.458,0.706,1.041,0.706c0.568-0.006,1.012-0.334,1.012-0.715
		C43.783,98.543,43.325,98.23,42.756,98.23z"/>
	<path d="M39.442,96.975c-0.569,0-1.012,0.326-1.012,0.707c0,0.404,0.457,0.715,1.012,0.715c0.569,0,1.026-0.318,1.026-0.715
		C40.468,97.294,40.011,96.967,39.442,96.975z"/>
	<path d="M34.782,91.234c0-0.396-0.471-0.707-1.026-0.707c-0.569,0-1.026,0.318-1.026,0.715c0,0.395,0.457,0.707,1.026,0.707
		C34.31,91.941,34.782,91.63,34.782,91.234z"/>
	<path d="M33.034,89.188c0-0.39-0.458-0.707-1.026-0.701c-0.554,0-1.026,0.313-1.026,0.709c0.015,0.389,0.472,0.715,1.041,0.707
		C32.577,89.902,33.049,89.584,33.034,89.188z"/>
	<path d="M36.363,93.592c0-0.388-0.472-0.707-1.026-0.707c-0.568,0-1.026,0.326-1.027,0.721c0,0.39,0.472,0.707,1.04,0.707
		C35.905,94.305,36.363,93.988,36.363,93.592z"/>
	<path d="M37.084,95.089c-0.568,0.009-1.026,0.334-1.026,0.716c0,0.394,0.458,0.715,1.026,0.715c0.57-0.008,1.013-0.322,1.013-0.723
		C38.097,95.408,37.64,95.089,37.084,95.089z"/>
	<path d="M29.179,86.914c-0.567,0-1.026,0.318-1.026,0.715c0,0.395,0.459,0.708,1.026,0.708c0.57-0.007,1.013-0.327,1.013-0.715
		C30.192,87.227,29.735,86.909,29.179,86.914z"/>
</g>
<path d="M56.18,118.898c0.735-0.873,1.221-2.086,1.207-3.84l-0.028-11.686c0,0-0.416-4.618,1.858-6.239l0.07,19.179
	c0,0.002-0.153,1.416-0.971,2.879c4.778,3.871,6.462,0.396,6.462,0.396c0.458-0.937,0.75-2.114,0.805-3.612l0.083-19.408
	l1.596-0.008l0.206,19.403c0.071,1.461,0.362,2.613,0.778,3.521c0,0,1.879,3.486,5.936-0.687c-0.361-1.366-0.401-2.539-0.401-2.539
	l-0.07-19.013c2.274,1.762,1.914,6.068,1.914,6.068l0.041,11.684c0,1.447,0.332,2.537,0.858,3.354c0,0,3.727,4.4,6.256-1.738
	c-1.012-0.943-1.139-1.795-1.139-1.795l-0.057-15.312c-0.014-5.97-2.537-9.116-4.991-10.78c14.285-1.472,21.136-6.121,24.269-13.32
	c5.478,0.132,9.361-0.457,17.447,1.394l0.109-0.45c-8-1.838-11.843-1.274-17.348-1.416c0.291-0.726,0.555-1.483,0.777-2.259
	c5.531-0.257,9.541-1.157,17.223-0.098l0.055-0.466c-7.613-1.06-11.593-0.164-17.141,0.084c1.041-3.834,1.357-8.235,1.332-13.146
	c-0.015-7.045-2.691-12.675-6.989-16.94c0.735-2.427,1.72-7.814-1.054-14.7c0,0-4.854-1.518-15.811,5.874
	c-4.299-1.062-8.875-1.568-13.449-1.562c-5.05,0.021-10.14,0.68-14.883,2.004c-11.357-7.696-16.349-6.094-16.349-6.094
	c-3.231,8.189-1.192,14.23-0.582,15.733c-3.798,4.161-6.129,9.465-6.115,15.954c0.028,4.896,0.596,9.292,1.969,13.104
	c-5.699-0.18-11.109-0.774-19.082,0.458l0.055,0.475c8.071-1.241,13.522-0.639,19.207-0.444c0.305,0.792,0.638,1.554,1.012,2.296
	c-5.561,0.2-11.218,0.021-19.483,1.939l0.11,0.457c8.362-1.947,14.104-1.746,19.623-1.941c3.855,7.136,11.399,11.719,24.823,13.111
	c-1.914,1.297-3.841,3.48-4.618,7.156c-2.579,1.264-10.789,4.327-15.739-4.145c0,0-2.774-5.042-8.043-5.417
	c0,0-5.132-0.063-0.361,3.196c0,0,3.439,1.607,5.824,7.676c0,0,3.121,10.353,17.987,6.976l0.041,10.706c0,0-0.111,1.357-0.957,2.732
	C53,122.001,56.18,118.898,56.18,118.898z M50.412,98.355c0,0.4-0.458,0.713-1.012,0.721c-0.57,0-1.026-0.311-1.026-0.707
	c0-0.389,0.457-0.715,1.012-0.715C49.954,97.648,50.412,97.973,50.412,98.355z M47.07,98.932c0.013,0.381-0.445,0.705-1.012,0.705
	c-0.569,0-1.026-0.318-1.026-0.705c0-0.396,0.457-0.715,1.026-0.715C46.611,98.217,47.07,98.527,47.07,98.932z M43.783,98.938
	c0,0.381-0.444,0.709-1.012,0.715c-0.583,0-1.026-0.324-1.041-0.706c0-0.401,0.458-0.716,1.026-0.716
	C43.325,98.23,43.783,98.543,43.783,98.938z M40.468,97.682c0,0.396-0.457,0.715-1.026,0.715c-0.555,0-1.012-0.311-1.012-0.715
	c0-0.381,0.443-0.707,1.012-0.707C40.011,96.967,40.468,97.294,40.468,97.682z M33.756,90.527c0.555,0,1.026,0.312,1.026,0.707
	s-0.472,0.707-1.026,0.715c-0.569,0-1.026-0.313-1.026-0.707C32.73,90.846,33.187,90.527,33.756,90.527z M32.023,89.902
	c-0.569,0.008-1.026-0.318-1.041-0.707c0-0.396,0.472-0.709,1.026-0.709c0.568-0.006,1.026,0.312,1.026,0.701
	C33.049,89.584,32.577,89.902,32.023,89.902z M35.337,92.885c0.554,0,1.026,0.319,1.026,0.707c0,0.396-0.458,0.713-1.013,0.721
	c-0.568,0-1.04-0.317-1.04-0.707C34.311,93.211,34.769,92.885,35.337,92.885z M37.084,95.089c0.556,0,1.013,0.319,1.013,0.708
	c0,0.4-0.443,0.715-1.013,0.723c-0.568,0-1.026-0.321-1.026-0.715C36.058,95.423,36.516,95.098,37.084,95.089z M30.192,87.622
	c0,0.388-0.443,0.708-1.013,0.715c-0.567,0-1.026-0.313-1.026-0.708c0-0.396,0.459-0.715,1.026-0.715
	C29.735,86.909,30.192,87.227,30.192,87.622z"/>
<path display="none" d="M64.876,0.353c-35.654,0-64.527,28.935-64.527,64.644c0,35.724,28.873,64.649,64.527,64.649
	c35.903,0,64.774-28.927,64.774-64.649C129.65,29.288,100.779,0.353,64.876,0.353z M11.027,73.354
	c8.071-1.241,13.522-0.639,19.207-0.444c0.305,0.792,0.638,1.554,1.012,2.296c-5.561,0.2-11.218,0.021-19.483,1.939
	C11.485,75.889,11.235,74.637,11.027,73.354z M51.701,95.928c-2.579,1.264-10.789,4.327-15.739-4.145c0,0-2.774-5.042-8.043-5.417
	c0,0-5.132-0.063-0.361,3.196c0,0,3.439,1.607,5.824,7.676c0,0,3.121,10.353,17.987,6.976l0.041,10.706c0,0-0.111,1.357-0.957,2.732
	c-19.096-5.243-34.003-20.637-38.58-40.051c8.362-1.947,14.104-1.746,19.623-1.941c3.855,7.136,11.399,11.719,24.823,13.111
	C54.405,90.068,52.478,92.252,51.701,95.928z M50.412,98.355c0,0.4-0.458,0.713-1.012,0.721c-0.57,0-1.026-0.311-1.026-0.707
	c0-0.389,0.457-0.715,1.012-0.715C49.954,97.648,50.412,97.973,50.412,98.355z M47.07,98.932c0.013,0.381-0.445,0.705-1.012,0.705
	c-0.569,0-1.026-0.318-1.026-0.705c0-0.396,0.457-0.715,1.026-0.715C46.611,98.217,47.07,98.527,47.07,98.932z M43.783,98.938
	c0,0.381-0.444,0.709-1.012,0.715c-0.583,0-1.026-0.324-1.041-0.706c0-0.401,0.458-0.716,1.026-0.716
	C43.325,98.23,43.783,98.543,43.783,98.938z M40.468,97.682c0,0.396-0.457,0.715-1.026,0.715c-0.555,0-1.012-0.311-1.012-0.715
	c0-0.381,0.443-0.707,1.012-0.707C40.011,96.967,40.468,97.294,40.468,97.682z M33.756,90.527c0.555,0,1.026,0.312,1.026,0.707
	s-0.472,0.707-1.026,0.715c-0.569,0-1.026-0.313-1.026-0.707C32.73,90.846,33.187,90.527,33.756,90.527z M32.023,89.902
	c-0.569,0.008-1.026-0.318-1.041-0.707c0-0.396,0.472-0.709,1.026-0.709c0.568-0.006,1.026,0.312,1.026,0.701
	C33.049,89.584,32.577,89.902,32.023,89.902z M35.337,92.885c0.554,0,1.026,0.319,1.026,0.707c0,0.396-0.458,0.713-1.013,0.721
	c-0.568,0-1.04-0.317-1.04-0.707C34.311,93.211,34.769,92.885,35.337,92.885z M37.084,95.089c0.556,0,1.013,0.319,1.013,0.708
	c0,0.4-0.443,0.715-1.013,0.723c-0.568,0-1.026-0.321-1.026-0.715C36.058,95.423,36.516,95.098,37.084,95.089z M30.192,87.622
	c0,0.388-0.443,0.708-1.013,0.715c-0.567,0-1.026-0.313-1.026-0.708c0-0.396,0.459-0.715,1.026-0.715
	C29.735,86.909,30.192,87.227,30.192,87.622z M58.316,119.191c-0.722-0.092-1.429-0.181-2.136-0.293
	c0.735-0.873,1.221-2.086,1.207-3.84l-0.028-11.686c0,0-0.416-4.618,1.858-6.239l0.07,19.179
	C59.287,116.314,59.134,117.729,58.316,119.191z M64.889,119.594c-0.042,0-0.083-0.007-0.111-0.007
	c0.458-0.937,0.75-2.114,0.805-3.612l0.083-19.408l1.596-0.008l0.206,19.403c0.071,1.461,0.362,2.613,0.778,3.521
	C67.135,119.545,66.014,119.594,64.889,119.594z M74.182,118.796c-0.361-1.366-0.401-2.539-0.401-2.539l-0.07-19.013
	c2.274,1.762,1.914,6.068,1.914,6.068l0.041,11.684c0,1.447,0.332,2.537,0.858,3.354C75.747,118.525,74.958,118.663,74.182,118.796z
	 M82.779,116.611c-1.012-0.943-1.139-1.795-1.139-1.795l-0.057-15.312c-0.014-5.97-2.537-9.116-4.991-10.78
	c14.285-1.472,21.136-6.121,24.269-13.32c5.478,0.132,9.361-0.457,17.447,1.394C114.217,95.43,100.611,110.467,82.779,116.611z
	 M118.418,76.348c-8-1.838-11.843-1.274-17.348-1.416c0.291-0.726,0.555-1.483,0.777-2.259c5.531-0.257,9.541-1.157,17.223-0.098
	C118.889,73.852,118.682,75.1,118.418,76.348z M101.984,72.193c1.041-3.834,1.357-8.235,1.332-13.146
	c-0.015-7.045-2.691-12.675-6.989-16.94c0.735-2.427,1.72-7.814-1.054-14.7c0,0-4.854-1.518-15.811,5.874
	c-4.299-1.062-8.875-1.568-13.449-1.562c-5.05,0.021-10.14,0.68-14.883,2.004c-11.357-7.696-16.349-6.094-16.349-6.094
	c-3.231,8.189-1.192,14.23-0.582,15.733c-3.798,4.161-6.129,9.465-6.115,15.954c0.028,4.896,0.596,9.292,1.969,13.104
	c-5.699-0.18-11.109-0.774-19.082,0.458c-0.375-2.57-0.568-5.199-0.568-7.882C10.389,34.849,34.797,10.4,64.889,10.4
	c30.329,0,54.722,24.449,54.722,54.597c0,2.413-0.18,4.782-0.486,7.112C111.512,71.05,107.532,71.945,101.984,72.193z"/>
</svg>
