<?xml version="1.0" encoding="utf-8"?>
<!-- Generator: Adobe Illustrator 15.1.0, SVG Export Plug-In . SVG Version: 6.00 Build 0)  -->
<!DOCTYPE svg PUBLIC "-//W3C//DTD SVG 1.1//EN" "http://www.w3.org/Graphics/SVG/1.1/DTD/svg11.dtd">
<svg version="1.1" xmlns="http://www.w3.org/2000/svg" xmlns:xlink="http://www.w3.org/1999/xlink" x="0px" y="0px" width="600px"
	 height="600px" viewBox="0 0 600 600" enable-background="new 0 0 600 600" xml:space="preserve">
<g id="Layer_1_copy">
	<rect x="-36.214" y="-30.213" width="684.069" height="684.068"/>
	<polygon id="_x2B__1_" fill="#FFFFFF" points="441.824,47.717 489.163,47.717 489.163,158.174 600.014,158.174 600.014,204.541 
		489.163,204.541 489.163,315.969 441.824,315.969 441.824,204.541 331.368,204.541 331.368,158.174 441.824,158.174 	"/>
	<path fill="#FFFFFF" d="M250.891,426.895l-31.398-24.426c-9.561-7.88-22.621-18.368-22.621-37.573
		c0-19.264,13.061-31.528,24.379-42.872c36.584-28.8,70.669-59.449,70.669-124.123c0-59.042-31.898-92.197-53.279-110.734
		c7.174,0,53.372,0,53.372,0l48.903-39.45h-184.09C111.149,48.566,56.677,55.421,7.027,96.52C4.7,98.523,2.18,100.85,0,102.947
		v213.022c23.877,19.849,56.322,34.91,95.848,34.91c8.729,0,18.275-0.901,27.875-1.756c-4.344,10.5-8.706,19.254-8.706,34.115
		c0,27.076,13.916,43.656,26.128,59.421C107.853,444.908,39.449,439.245,0,470.805v50.296
		c17.975-24.431,46.691-35.356,59.273-39.957c36.575-12.252,83.62-14.007,91.495-14.007c8.659,0,13.021,0,19.961,0.901
		c66.232,47.221,113.686,71.517,114.177,116.181c0.094,8.652-2.356,11.342-3.652,15.781h50.992
		c5.254-12.274,7.011-26.791,7.011-42.955C339.258,496.717,289.192,459.254,250.891,426.895z"/>
	<path d="M139.75,315.969c-74.914,0-105.663-86.603-105.663-145.144c0-22.775,2.281-46.336,17.088-64.705
		C65.136,88.638,89.5,77.273,112.167,77.273c72.256,0,108.746,97.898,108.746,160.846c0,12.604-6.41,37.252-22.753,55.976
		C183.829,310.43,161.509,315.969,139.75,315.969z"/>
</g>
<g id="Layer_1">
	<polygon id="_x2B__3_" points="441.824,47.717 489.163,47.717 489.163,158.174 600.014,158.174 600.014,204.541 489.163,204.541 
		489.163,315.969 441.824,315.969 441.824,204.541 331.368,204.541 331.368,158.174 441.824,158.174 	"/>
	<path d="M250.891,426.895l-31.398-24.426c-9.561-7.88-22.621-18.368-22.621-37.573c0-19.264,13.061-31.528,24.379-42.872
		c36.584-28.8,70.669-59.449,70.669-124.123c0-59.042-31.898-92.197-53.279-110.734c7.174,0,53.372,0,53.372,0l48.903-39.45h-184.09
		C111.149,48.566,56.677,55.421,7.027,96.52C4.7,98.523,2.18,100.85,0,102.947v213.022c23.877,19.849,56.322,34.91,95.848,34.91
		c8.729,0,18.275-0.901,27.875-1.756c-4.344,10.5-8.706,19.254-8.706,34.115c0,27.076,13.916,43.656,26.128,59.421
		C107.853,444.908,39.449,439.245,0,470.805v50.296c17.975-24.431,46.691-35.356,59.273-39.957
		c36.575-12.252,83.62-14.007,91.495-14.007c8.659,0,13.021,0,19.961,0.901c66.232,47.221,113.686,71.517,114.177,116.181
		c0.094,8.652-2.356,11.342-3.652,15.781h50.992c5.254-12.274,7.011-26.791,7.011-42.955
		C339.258,496.717,289.192,459.254,250.891,426.895z M139.75,315.969c-74.914,0-105.663-86.603-105.663-145.144
		c0-22.775,2.281-46.336,17.088-64.705C65.136,88.638,89.5,77.273,112.167,77.273c72.256,0,108.746,97.898,108.746,160.846
		c0,12.604-6.41,37.252-22.753,55.976C183.829,310.43,161.509,315.969,139.75,315.969z"/>
</g>
</svg>
