<?xml version="1.0" encoding="utf-8"?>
<!-- Generator: Adobe Illustrator 15.1.0, SVG Export Plug-In . SVG Version: 6.00 Build 0)  -->
<!DOCTYPE svg PUBLIC "-//W3C//DTD SVG 1.1//EN" "http://www.w3.org/Graphics/SVG/1.1/DTD/svg11.dtd">
<svg version="1.1" xmlns="http://www.w3.org/2000/svg" xmlns:xlink="http://www.w3.org/1999/xlink" x="0px" y="0px" width="256px"
	 height="256px" viewBox="0 0 256 256" enable-background="new 0 0 256 256" xml:space="preserve">
<g id="svg2_copy" inkscape:output_extension="org.inkscape.output.svg.inkscape" inkscape:version="0.47 r22583" sodipodi:docname="linkedin.svg" sodipodi:version="0.32" xmlns:cc="http://creativecommons.org/ns#" xmlns:inkscape="http://www.inkscape.org/namespaces/inkscape" xmlns:sodipodi="http://sodipodi.sourceforge.net/DTD/sodipodi-0.dtd" xmlns:rdf="http://www.w3.org/1999/02/22-rdf-syntax-ns#" xmlns:dc="http://purl.org/dc/elements/1.1/" xmlns:svg="http://www.w3.org/2000/svg">
	<path d="M-6.5-8.5v270h272v-270H-6.5z M77.458,214.889H38.982V99.12h38.476V214.889z M58.228,83.313h-0.254
		c-12.917,0-21.264-8.89-21.264-20c0-11.357,8.603-20.001,21.77-20.001c13.157,0,21.267,8.644,21.515,20.001
		C79.995,74.423,71.636,83.313,58.228,83.313z M216.208,214.889h-38.477v-61.937c0-15.56-5.564-26.179-19.49-26.179
		c-10.626,0-16.963,7.158-19.737,14.075c-1.018,2.471-1.27,5.931-1.27,9.391v64.65H98.752c0,0,0.511-104.908,0-115.769h38.482
		v16.383c5.114-7.888,14.265-19.101,34.675-19.101c25.319,0,44.299,16.545,44.299,52.104V214.889z"/>
</g>
<g id="svg2" inkscape:output_extension="org.inkscape.output.svg.inkscape" inkscape:version="0.47 r22583" sodipodi:docname="linkedin.svg" sodipodi:version="0.32" xmlns:cc="http://creativecommons.org/ns#" xmlns:inkscape="http://www.inkscape.org/namespaces/inkscape" xmlns:sodipodi="http://sodipodi.sourceforge.net/DTD/sodipodi-0.dtd" xmlns:rdf="http://www.w3.org/1999/02/22-rdf-syntax-ns#" xmlns:dc="http://purl.org/dc/elements/1.1/" xmlns:svg="http://www.w3.org/2000/svg" display="none">
	<path id="path28_1_" inkscape:connector-curvature="0" display="inline" d="M77.458,214.889V99.12H38.982v115.769H77.458z
		 M58.228,83.313c13.409,0,21.767-8.89,21.767-20c-0.249-11.357-8.358-20.001-21.515-20.001c-13.167,0-21.77,8.644-21.77,20.001
		c0,11.11,8.347,20,21.264,20H58.228L58.228,83.313z"/>
	<path id="path30_1_" inkscape:connector-curvature="0" display="inline" d="M98.752,214.889h38.482v-64.65
		c0-3.46,0.252-6.92,1.27-9.391c2.774-6.917,9.111-14.075,19.737-14.075c13.926,0,19.49,10.62,19.49,26.179v61.937h38.477v-66.383
		c0-35.558-18.979-52.104-44.299-52.104c-20.756,0-29.871,11.599-34.935,19.501h0.26V99.12H98.752
		C99.263,109.981,98.752,214.889,98.752,214.889L98.752,214.889z"/>
</g>
</svg>
