<?xml version="1.0" encoding="utf-8"?>
<!-- Generator: Adobe Illustrator 15.1.0, SVG Export Plug-In . SVG Version: 6.00 Build 0)  -->
<!DOCTYPE svg PUBLIC "-//W3C//DTD SVG 1.1//EN" "http://www.w3.org/Graphics/SVG/1.1/DTD/svg11.dtd">
<svg version="1.1" id="Layer_1" xmlns="http://www.w3.org/2000/svg" xmlns:xlink="http://www.w3.org/1999/xlink" x="0px" y="0px"
	 width="200px" height="200px" viewBox="0 0 200 200" enable-background="new 0 0 200 200" xml:space="preserve">
<path d="M209,206H-6V-7h215V206z M84.677,43.194c-0.722,5.842-2.04,10.649-3.954,14.429c-1.913,3.783-4.451,7.019-7.615,9.717
	c-3.164,2.696-6.962,4.768-11.401,6.212v16.151H74.12v39.726c0,5.175,0.542,9.125,1.628,11.849c1.084,2.727,3.034,5.302,5.844,7.722
	c2.809,2.421,6.204,4.283,10.186,5.592c3.98,1.306,8.558,1.959,13.735,1.959c4.562,0,8.806-0.458,12.73-1.372
	c3.923-0.917,8.308-2.512,13.151-4.792V132.56c-5.679,3.731-11.389,5.598-17.124,5.598c-3.229,0-6.1-0.75-8.604-2.256
	c-1.894-1.111-3.189-2.602-3.886-4.468s-1.042-6.085-1.042-12.657V89.703h26.917V71.907H100.74V43.194H84.677z"/>
<path d="M84.677,43.194c-0.722,5.842-2.04,10.649-3.954,14.429c-1.913,3.783-4.451,7.019-7.615,9.717
	c-3.164,2.696-6.962,4.768-11.401,6.212v16.151H74.12v39.726c0,5.175,0.542,9.125,1.628,11.849c1.084,2.727,3.034,5.302,5.844,7.722
	c2.809,2.421,6.204,4.283,10.186,5.592c3.98,1.306,8.558,1.959,13.735,1.959c4.562,0,8.806-0.458,12.73-1.372
	c3.923-0.917,8.308-2.512,13.151-4.792V132.56c-5.679,3.731-11.389,5.598-17.124,5.598c-3.229,0-6.1-0.75-8.604-2.256
	c-1.894-1.111-3.189-2.602-3.886-4.468s-1.042-6.085-1.042-12.657V89.703h26.917V71.907H100.74V43.194H84.677z"/>
</svg>
